<?xml version="1.0" encoding="utf-8"?>
<!-- Generator: Adobe Illustrator 15.0.0, SVG Export Plug-In . SVG Version: 6.00 Build 0)  -->
<!DOCTYPE svg PUBLIC "-//W3C//DTD SVG 1.1//EN" "http://www.w3.org/Graphics/SVG/1.1/DTD/svg11.dtd">
<svg version="1.1" id="Capa_1" xmlns="http://www.w3.org/2000/svg" xmlns:xlink="http://www.w3.org/1999/xlink" x="0px" y="0px"
	 width="126.8px" height="126.8px" viewBox="0 0 126.8 126.8" enable-background="new 0 0 126.8 126.8" xml:space="preserve">
<circle fill="#7FA090" cx="63.4" cy="63.4" r="63.4"/>
<g>
	<g>
		<path fill="#D7DDDD" stroke="#000000" stroke-miterlimit="10" d="M84.4,42.4v39c0,2.5-2,4.5-4.5,4.5h-33c-2.5,0-4.5-2-4.5-4.5v-39
			c0-2.5,2-4.5,4.5-4.5h33C82.4,37.9,84.4,39.9,84.4,42.4z M66.4,79.9c0-1.7-1.3-3-3-3c-1.7,0-3,1.3-3,3s1.3,3,3,3
			C65.1,82.9,66.4,81.6,66.4,79.9z"/>
	</g>
</g>
<circle fill="#7FA090" cx="63.4" cy="63.4" r="63.4"/>
<g>
	<g>
		<path fill="#E36883" stroke="#000000" stroke-miterlimit="10" d="M76.5,48.7v27c0,2.5-2,4.5-4.5,4.5H45c-2.5,0-4.5-2-4.5-4.5v-27
			c0-2.5,2-4.5,4.5-4.5h27C74.5,44.3,76.5,46.3,76.5,48.7z M94.5,50.2v24.1c0,2.4-2.7,3.8-4.7,2.4l-10.3-7.1V54.9l10.3-7.1
			C91.8,46.4,94.5,47.8,94.5,50.2z"/>
	</g>
</g>
</svg>
