<?xml version="1.0" encoding="utf-8"?>
<!-- Generator: Adobe Illustrator 15.0.0, SVG Export Plug-In . SVG Version: 6.00 Build 0)  -->
<!DOCTYPE svg PUBLIC "-//W3C//DTD SVG 1.1//EN" "http://www.w3.org/Graphics/SVG/1.1/DTD/svg11.dtd">
<svg version="1.1" id="Capa_1" xmlns="http://www.w3.org/2000/svg" xmlns:xlink="http://www.w3.org/1999/xlink" x="0px" y="0px"
	 width="229px" height="300px" viewBox="0 0 229 300" enable-background="new 0 0 229 300" xml:space="preserve">
<g transform="translate(0.000000,300.000000) scale(0.100000,-0.100000)">
	
		<linearGradient id="node1_1_" gradientUnits="userSpaceOnUse" x1="534.0819" y1="1501.1669" x2="705.6151" y2="1501.1669" gradientTransform="matrix(1 0 0 1 -6.008148e-005 9.059906e-006)">
		<stop  offset="0" style="stop-color:#B85162"/>
		<stop  offset="0.3515" style="stop-color:#CF3C54"/>
		<stop  offset="0.4246" style="stop-color:#C0384E"/>
		<stop  offset="0.5655" style="stop-color:#982C3E"/>
		<stop  offset="0.76" style="stop-color:#581A24"/>
		<stop  offset="1" style="stop-color:#000000"/>
	</linearGradient>
	<path id="node1" fill="url(#node1_1_)" d="M1497.002,2956.001c-82.998-33.999-177.002-98.999-237.002-162.002
		c-57.002-60-55-48.999-30.996-171.001c8.994-48.999,46.992-130,75.996-162.998c27.998-32.002,27.998-67.002,0.996-102.998
		c-31.992-42.002-31.992-51.001-0.996-71.001c19.004-13.003,24.004-22.002,20-37.002c-5-13.999,0-26.997,14.004-40
		c11.992-11.001,20.996-23.999,20.996-30c0-5,15.996-16.997,35-25c29.004-11.997,35-20,35-42.998
		c0-36.001,22.998-61.001,57.002-61.001c13.994,0,55,12.998,90,30c72.998,35,78.994,36.001,87.002,13.999
		C1682.998,2045,1650,1980,1555,1880c-17.998-18.999-37.998-46.001-45-60c-30-58.999-75-121.001-87.002-117.998
		c-7.002,1.997-47.998,55-90,117.998c-72.998,107.998-82.002,117.002-140,145c-33.994,17.002-78.999,47.002-100,67.002
		c-41.997,40.996-82.998,53.999-138.999,42.998c-36.997-6.001-36.001-20,1.001-27.002c17.998-2.998,16.001-5.996-8.999-17.998
		c-33.999-17.002-51.001-48.999-20-35c32.998,13.999,73.999,17.998,73.999,7.002c0-6.001-7.002-17.002-15-26.001
		c-7.998-8.003-15-23.999-15-36.001c0-30-48.999-72.998-75-65c-11.001,2.998-32.998,7.998-47.998,12.002
		c-16.001,2.998-31.001,12.998-34.004,21.997c-10,26.001-45,61.001-63.999,61.001c-26.997,0-45-27.998-31.001-50
		c10-16.001,7.002-20-17.998-28.999c-26.001-8.003-28.999-13.003-21.001-33.003c8.999-25.996,45-47.998,78.999-47.998
		c24.004,0,30-22.002,10-37.002c-6.997-5.996-43.999-12.998-81.997-15.996c-65-5-72.002-8.003-103.003-42.002
		c-17.998-21.001-35.996-48.999-38.999-63.999c-2.998-13.999-6.997-35-8.999-45c-5-26.001,10-53.003,55-101.001l37.998-40
		l-20-80.996c-13.999-52.002-17.998-88.008-12.998-100c7.998-17.002,8.999-16.006,12.002,5.996c10.996,80,40.996,160,60,160
		c8.999,0,75-57.002,147.998-127.002c136.001-132.002,221.001-190.996,328.999-232.002c66.001-25,91.997-21.992,171.001,15
		c27.002,14.004,55,22.002,62.002,20c13.994-5.996,18.994-151.992,5-171.992c-4.004-6.006-70-47.002-147.002-89.004
		C988.999,727.998,895,657.002,732.002,484.004C622.998,367.998,607.998,345.996,631.001,322.998
		c7.998-7.998,7.998-20.996-2.002-45.996c-10-27.998-10-44.004-1.001-74.004c13.003-43.994,70-108.994,110-125
		C797.002,55,940,50,1275,62.002c270.996,8.994,362.002,8.994,450-2.002c60.996-7.002,172.998-15.996,250-20.996
		s165.996-12.002,197.998-15c57.002-6.006,59.004-5,55,16.992c-2.002,13.008-17.002,30-37.998,42.002
		c-19.004,10-45.996,32.002-60,49.004c-20.996,25-35,30.996-90.996,37.998c-36.006,4.004-75,12.002-86.006,17.998
		c-22.002,12.002-72.998,75-72.998,91.006c0,5,24.004,33.994,52.998,62.998C1995,405,2010,450,2010,575
		c0,127.998-20.996,215-84.004,345C1905,962.998,1890,1007.998,1890,1029.004c0,20,15.996,80.996,35,135.996
		c20,55,42.002,117.998,50,140c35.996,105,45.996,292.998,20.996,395C1975,1782.998,1910,1973.999,1900,1983.999
		c-5.996,6.001-10,58.003-10,116.001c0,91.001,2.998,108.999,17.998,122.998c22.998,21.001,42.002,6.001,42.002-31.997
		c0-15,9.004-38.999,20-56.001c10.996-16.001,20-37.998,20-47.998s9.004-35,20-55c50.996-96.001,100.996-212.002,95-222.002
		c-2.998-5-12.002-10-20-10c-25,0-25.996-17.998-5-60c20-40,32.998-48.999,45-30c15,25,32.998,7.998,39.004-37.998
		c3.994-32.002,15.996-60,35-82.002l28.994-35l11.006,27.998c15.996,40,13.994,62.002-9.004,107.002c-24.004,47.002-25,60-5.996,60
		c23.994,0,27.998,17.002,15,60c-9.004,30-16.006,38.999-28.008,35c-17.998-5-60.996,65-60.996,100c0,11.001-9.004,33.999-20,50
		c-10.996,17.002-20,41.001-20,53.999c0,12.002-10.996,45-25,73.003c-14.004,26.997-25,60-25,71.997
		c0,12.002-7.002,32.002-15.996,45c-17.002,23.999-15,46.001,16.992,188.003c12.002,55.996,11.006,197.998-1.992,247.998
		c-25,97.998-114.004,217.002-192.002,256.001C1757.998,2987.002,1599.004,2997.998,1497.002,2956.001z M1101.001,1938.999
		c36.001-38.999,36.997-61.997,2.998-77.998c-38.999-17.002-63.999-6.001-63.999,30c0,18.999-5,28.999-13.999,28.999
		c-22.002,0-30,18.999-16.001,35C1030,1980,1070,1972.998,1101.001,1938.999z M1132.998,1802.998
		c50-3.999,69.004-8.999,76.006-21.997c8.994-15,47.998-170,65.996-261.001c4.004-18.999,14.004-47.998,22.002-62.998
		c12.998-26.006,12.002-31.006-2.998-55c-56.006-86.006-97.002-82.002-324.004,27.002c-126.001,60-140,74.995-137.998,156.997
		c0.996,31.997-6.001,62.998-20,91.001c-28.003,53.999-28.003,83.999,0.996,110.996c27.002,26.001,37.002,20,37.002-18.999
		c0-52.998,91.001-82.998,97.998-31.997c3.003,16.997,11.001,22.998,40,25c34.004,2.998,37.002,5,34.004,31.997
		c-3.003,26.001-1.001,28.003,20,21.001C1055,1811.001,1095,1805,1132.998,1802.998z M730,1712.002c0-5-6.001-17.002-13.999-28.003
		c-11.001-15-17.002-16.001-27.002-6.997C672.998,1692.998,685,1720,710,1720C721.001,1720,730,1716.001,730,1712.002z M750,1655
		c0-7.998-3.999-15-10-15c-5,0-10,7.002-10,15s5,15,10,15C746.001,1670,750,1662.998,750,1655z"/>
	
		<linearGradient id="node2_1_" gradientUnits="userSpaceOnUse" x1="40.3906" y1="99.4336" x2="52.2724" y2="99.4336" gradientTransform="matrix(1 0 0 1 -6.008148e-005 9.059906e-006)">
		<stop  offset="0" style="stop-color:#B85162"/>
		<stop  offset="0.3515" style="stop-color:#CF3C54"/>
		<stop  offset="0.4246" style="stop-color:#C0384E"/>
		<stop  offset="0.5655" style="stop-color:#982C3E"/>
		<stop  offset="0.76" style="stop-color:#581A24"/>
		<stop  offset="1" style="stop-color:#000000"/>
	</linearGradient>
	<path id="node2" fill="url(#node2_1_)" d="M65,134.004C22.998,89.004,37.002,40,90,40c60,0,90,57.002,52.998,100
		C118.999,167.002,93.999,165,65,134.004z"/>
	
		<linearGradient id="node3_1_" gradientUnits="userSpaceOnUse" x1="319.9999" y1="79.5117" x2="336.9999" y2="79.5117" gradientTransform="matrix(1 0 0 1 -6.008148e-005 9.059906e-006)">
		<stop  offset="0" style="stop-color:#B85162"/>
		<stop  offset="0.3515" style="stop-color:#CF3C54"/>
		<stop  offset="0.4246" style="stop-color:#C0384E"/>
		<stop  offset="0.5655" style="stop-color:#982C3E"/>
		<stop  offset="0.76" style="stop-color:#581A24"/>
		<stop  offset="1" style="stop-color:#000000"/>
	</linearGradient>
	<path id="node3" fill="url(#node3_1_)" d="M391.001,122.998C357.998,117.002,320,90.996,320,75c0-22.002,67.998-47.998,107.998-40
		C472.002,42.998,490,55.996,490,80C490,112.002,442.002,132.998,391.001,122.998z"/>
</g>
<g transform="translate(0.000000,300.000000) scale(0.100000,-0.100000)">
</g>
</svg>
